{"title":"Tamara Drewe.2010.720p.BRRip.x264.Feel-Free","uid":6155104,"size":1865102911,"categoryP":"video","categoryS":"hd___movies","magnet":"?xt=urn:btih:fb7ae48d64eac551ed344e50fea37026e20956fe&amp;dn=Tamara+Drewe.2010.720p.BRRip.x264.Feel-Free&amp;tr=udp%3A%2F%2Ftracker.openbittorrent.com%3A80&amp;tr=udp%3A%2F%2Fopen.demonii.com%3A1337&amp;tr=udp%3A%2F%2Ftracker.coppersurfer.tk%3A6969&amp;tr=udp%3A%2F%2Fexodus.desync.com%3A6969","seeders":0,"leechers":1,"uploader":"neon","files":12,"time":1297011497,"description":"Genre:Comedy\nLanguage:English\n &lt;a href=&quot; http://www.imdb.com/title/tt1486190/&quot; rel=&quot;nofollow&quot; target=&quot;_NEW&quot;&gt; http://www.imdb.com/title/tt1486190/&lt;/a&gt;\nSource:BluRay.x264-Felony\nSubtitles:Romana\n\n\nFormat : MPEG-4\nFormat profile : Base Media\nCodec ID : isom\nFile size : 1.73 GiB\nDuration : 1h 51mn\nOverall bit rate : 2 221 Kbps\n\n\nVideo\nFormat settings, CABAC : Yes\nFormat settings, ReFrames : 3 frames\nCodec ID : avc1\nCodec ID/Info : Advanced Video Coding\nDuration : 1h 51mn\nBit rate mode : Variable\nBit rate : 1 791 Kbps\nMaximum bit rate : 9 365 Kbps\nWidth : 1 280 pixels\nHeight : 528 pixels\nDisplay aspect ratio : 2.40:1\nFrame rate mode : Constant\nFrame rate : 23.976 fps\nColor space : YUV\nChroma subsampling : 4:2:0\nBit depth : 8 bits\nScan type : Progressive\nBits/(Pixel*Frame) : 0.111\nStream size : 1.38 GiB (80%)\nWriting library : x264\n\n\nAudio\nID : 2\nFormat : AAC\nFormat/Info : Advanced Audio Codec\nFormat version : Version 4\nFormat profile : LC\nFormat settings, SBR : No\nCodec ID : 40\nDuration : 1h 51mn\nBit rate mode : Variable\nBit rate : 444 Kbps\nMaximum bit rate : 544 Kbps\nChannel(s) : 6 channels\nChannel positions : Front: L C R, Side: L R, LFE\nSampling rate : 48.0 KHz\nStream size : 354 MiB (20%)\n\n\n\nPlot:\nA young newspaper writer returns to her hometown in the English countryside, where her childhood home is being prepped for sale\n","torrent":{"xt":"urn:btih:fb7ae48d64eac551ed344e50fea37026e20956fe","amp;dn":"Tamara+Drewe.2010.720p.BRRip.x264.Feel-Free","amp;tr":["udp%3A%2F%2Ftracker.openbittorrent.com%3A80","udp%3A%2F%2Fopen.demonii.com%3A1337","udp%3A%2F%2Ftracker.coppersurfer.tk%3A6969","udp%3A%2F%2Fexodus.desync.com%3A6969"],"infoHash":"fb7ae48d64eac551ed344e50fea37026e20956fe","infoHashBuffer":{"type":"Buffer","data":[251,122,228,141,100,234,197,81,237,52,78,80,254,163,112,38,226,9,86,254]},"announce":[],"urlList":[]}}